<mxfile host="app.diagrams.net" modified="2023-08-10T10:02:50.668Z" agent="Mozilla/5.0 (Windows NT 10.0; Win64; x64; rv:109.0) Gecko/20100101 Firefox/116.0" etag="AoO1T-_TA9oxrL_Rbz2K" version="21.6.6" type="github">
  <diagram name="Sivu-1" id="dVFOmkE58-xk7HbGH26S">
    <mxGraphModel dx="1951" dy="992" grid="1" gridSize="10" guides="1" tooltips="1" connect="1" arrows="1" fold="1" page="1" pageScale="1" pageWidth="1169" pageHeight="827" math="1" shadow="0">
      <root>
        <mxCell id="0" />
        <mxCell id="1" parent="0" />
        <mxCell id="7A0JXXa-Py3rXMK70Vjk-11" value="" style="rounded=1;whiteSpace=wrap;html=1;arcSize=3;fillColor=#F2F2F2;strokeWidth=2;" vertex="1" parent="1">
          <mxGeometry x="10" y="90" width="900" height="650" as="geometry" />
        </mxCell>
        <mxCell id="7A0JXXa-Py3rXMK70Vjk-18" value="" style="rounded=1;whiteSpace=wrap;html=1;fillColor=#DBDBDB;strokeColor=none;" vertex="1" parent="1">
          <mxGeometry x="280" y="280" width="400" height="240" as="geometry" />
        </mxCell>
        <mxCell id="7A0JXXa-Py3rXMK70Vjk-1" value="&lt;font style=&quot;font-size: 20px;&quot;&gt;Get next error signal block from audio interface&lt;br&gt;&lt;/font&gt;" style="rounded=1;whiteSpace=wrap;html=1;" vertex="1" parent="1">
          <mxGeometry x="360" y="130" width="240" height="70" as="geometry" />
        </mxCell>
        <mxCell id="7A0JXXa-Py3rXMK70Vjk-3" value="&lt;div style=&quot;font-size: 16px;&quot;&gt;&lt;font style=&quot;font-size: 16px;&quot;&gt;Downsample to \(f_s=3000\) Hz&lt;br&gt;&lt;/font&gt;&lt;/div&gt;" style="rounded=1;whiteSpace=wrap;html=1;" vertex="1" parent="1">
          <mxGeometry x="410" y="260" width="140" height="40" as="geometry" />
        </mxCell>
        <mxCell id="7A0JXXa-Py3rXMK70Vjk-16" style="edgeStyle=orthogonalEdgeStyle;rounded=0;orthogonalLoop=1;jettySize=auto;html=1;entryX=0.5;entryY=0;entryDx=0;entryDy=0;strokeWidth=3;strokeColor=#0000FF;" edge="1" parent="1" source="7A0JXXa-Py3rXMK70Vjk-4" target="7A0JXXa-Py3rXMK70Vjk-8">
          <mxGeometry relative="1" as="geometry" />
        </mxCell>
        <mxCell id="7A0JXXa-Py3rXMK70Vjk-4" value="&lt;font style=&quot;font-size: 20px;&quot;&gt;Read next block from audio file&lt;/font&gt;" style="rounded=1;whiteSpace=wrap;html=1;" vertex="1" parent="1">
          <mxGeometry x="60" y="130" width="200" height="70" as="geometry" />
        </mxCell>
        <mxCell id="7A0JXXa-Py3rXMK70Vjk-5" value="&lt;font style=&quot;font-size: 20px;&quot;&gt;Calculate adaptive filter output \(u(n)\) sample by sample&lt;/font&gt;" style="rounded=1;whiteSpace=wrap;html=1;" vertex="1" parent="1">
          <mxGeometry x="360" y="360" width="240" height="80" as="geometry" />
        </mxCell>
        <mxCell id="7A0JXXa-Py3rXMK70Vjk-6" value="&lt;font style=&quot;font-size: 20px;&quot;&gt;Output to secondary source&lt;/font&gt;" style="rounded=1;whiteSpace=wrap;html=1;" vertex="1" parent="1">
          <mxGeometry x="360" y="640" width="240" height="80" as="geometry" />
        </mxCell>
        <mxCell id="7A0JXXa-Py3rXMK70Vjk-7" value="&lt;div style=&quot;font-size: 16px;&quot;&gt;&lt;font style=&quot;font-size: 16px;&quot;&gt;Upsample to \(f_s=48000\) Hz&lt;br&gt;&lt;/font&gt;&lt;/div&gt;" style="rounded=1;whiteSpace=wrap;html=1;" vertex="1" parent="1">
          <mxGeometry x="410" y="500" width="140" height="40" as="geometry" />
        </mxCell>
        <mxCell id="7A0JXXa-Py3rXMK70Vjk-17" style="edgeStyle=orthogonalEdgeStyle;rounded=0;orthogonalLoop=1;jettySize=auto;html=1;entryX=0.226;entryY=-0.011;entryDx=0;entryDy=0;entryPerimeter=0;strokeWidth=3;strokeColor=#0000FF;" edge="1" parent="1" source="7A0JXXa-Py3rXMK70Vjk-8" target="7A0JXXa-Py3rXMK70Vjk-13">
          <mxGeometry relative="1" as="geometry" />
        </mxCell>
        <mxCell id="7A0JXXa-Py3rXMK70Vjk-8" value="&lt;font style=&quot;font-size: 20px;&quot;&gt;Output to primary source&lt;/font&gt;" style="rounded=1;whiteSpace=wrap;html=1;" vertex="1" parent="1">
          <mxGeometry x="60" y="640" width="200" height="80" as="geometry" />
        </mxCell>
        <mxCell id="7A0JXXa-Py3rXMK70Vjk-9" value="&lt;font style=&quot;font-size: 18px;&quot;&gt;Get next second microphone signal block from audio interface&lt;/font&gt;" style="rounded=1;whiteSpace=wrap;html=1;" vertex="1" parent="1">
          <mxGeometry x="680" y="130" width="200" height="70" as="geometry" />
        </mxCell>
        <mxCell id="7A0JXXa-Py3rXMK70Vjk-10" value="&lt;font style=&quot;font-size: 18px;&quot;&gt;Audio interface RME UCX&lt;/font&gt;" style="rounded=0;whiteSpace=wrap;html=1;strokeWidth=2;fillColor=#999999;" vertex="1" parent="1">
          <mxGeometry x="320" y="10" width="580" height="60" as="geometry" />
        </mxCell>
        <mxCell id="7A0JXXa-Py3rXMK70Vjk-12" value="&lt;font style=&quot;font-size: 18px;&quot;&gt;Test signal .wav file&lt;br&gt;&lt;/font&gt;" style="rounded=0;whiteSpace=wrap;html=1;strokeWidth=2;fillColor=#B3B3B3;" vertex="1" parent="1">
          <mxGeometry x="20" y="10" width="280" height="60" as="geometry" />
        </mxCell>
        <mxCell id="7A0JXXa-Py3rXMK70Vjk-13" value="&lt;font style=&quot;font-size: 18px;&quot;&gt;Audio interface RME UCX&lt;/font&gt;" style="rounded=0;whiteSpace=wrap;html=1;strokeWidth=2;fillColor=#999999;" vertex="1" parent="1">
          <mxGeometry x="20" y="760" width="620" height="60" as="geometry" />
        </mxCell>
        <mxCell id="7A0JXXa-Py3rXMK70Vjk-14" value="&lt;font style=&quot;font-size: 18px;&quot;&gt;Measurement .wav file&lt;/font&gt;" style="rounded=0;whiteSpace=wrap;html=1;strokeWidth=2;fillColor=#B3B3B3;" vertex="1" parent="1">
          <mxGeometry x="660" y="760" width="240" height="60" as="geometry" />
        </mxCell>
        <mxCell id="7A0JXXa-Py3rXMK70Vjk-15" value="" style="endArrow=classic;html=1;rounded=0;exitX=0.5;exitY=1;exitDx=0;exitDy=0;entryX=0.5;entryY=0;entryDx=0;entryDy=0;strokeWidth=3;strokeColor=#0000CC;" edge="1" parent="1" source="7A0JXXa-Py3rXMK70Vjk-12" target="7A0JXXa-Py3rXMK70Vjk-4">
          <mxGeometry width="50" height="50" relative="1" as="geometry">
            <mxPoint x="250" y="290" as="sourcePoint" />
            <mxPoint x="300" y="240" as="targetPoint" />
          </mxGeometry>
        </mxCell>
        <mxCell id="7A0JXXa-Py3rXMK70Vjk-19" value="" style="endArrow=classic;html=1;rounded=0;entryX=0.5;entryY=0;entryDx=0;entryDy=0;strokeWidth=3;strokeColor=#009900;" edge="1" parent="1" target="7A0JXXa-Py3rXMK70Vjk-1">
          <mxGeometry width="50" height="50" relative="1" as="geometry">
            <mxPoint x="480" y="70" as="sourcePoint" />
            <mxPoint x="530" y="20" as="targetPoint" />
          </mxGeometry>
        </mxCell>
        <mxCell id="7A0JXXa-Py3rXMK70Vjk-20" value="" style="endArrow=classic;html=1;rounded=0;strokeColor=#009999;strokeWidth=3;entryX=0.5;entryY=0;entryDx=0;entryDy=0;exitX=0.822;exitY=1.017;exitDx=0;exitDy=0;exitPerimeter=0;" edge="1" parent="1" source="7A0JXXa-Py3rXMK70Vjk-10" target="7A0JXXa-Py3rXMK70Vjk-9">
          <mxGeometry width="50" height="50" relative="1" as="geometry">
            <mxPoint x="800" y="70" as="sourcePoint" />
            <mxPoint x="850" y="20" as="targetPoint" />
          </mxGeometry>
        </mxCell>
        <mxCell id="7A0JXXa-Py3rXMK70Vjk-21" value="" style="endArrow=classic;html=1;rounded=0;entryX=0.5;entryY=0;entryDx=0;entryDy=0;strokeWidth=3;strokeColor=#009900;" edge="1" parent="1" source="7A0JXXa-Py3rXMK70Vjk-1" target="7A0JXXa-Py3rXMK70Vjk-3">
          <mxGeometry width="50" height="50" relative="1" as="geometry">
            <mxPoint x="480" y="250" as="sourcePoint" />
            <mxPoint x="480" y="270.71067811865476" as="targetPoint" />
          </mxGeometry>
        </mxCell>
        <mxCell id="7A0JXXa-Py3rXMK70Vjk-22" value="" style="endArrow=classic;html=1;rounded=0;strokeWidth=3;strokeColor=#009900;" edge="1" parent="1" source="7A0JXXa-Py3rXMK70Vjk-3">
          <mxGeometry width="50" height="50" relative="1" as="geometry">
            <mxPoint x="480" y="370" as="sourcePoint" />
            <mxPoint x="480" y="360" as="targetPoint" />
          </mxGeometry>
        </mxCell>
        <mxCell id="7A0JXXa-Py3rXMK70Vjk-23" value="" style="endArrow=classic;html=1;rounded=0;strokeWidth=3;strokeColor=#CC0000;entryX=0.5;entryY=0;entryDx=0;entryDy=0;" edge="1" parent="1" source="7A0JXXa-Py3rXMK70Vjk-5" target="7A0JXXa-Py3rXMK70Vjk-7">
          <mxGeometry width="50" height="50" relative="1" as="geometry">
            <mxPoint x="480" y="490" as="sourcePoint" />
            <mxPoint x="480" y="480" as="targetPoint" />
          </mxGeometry>
        </mxCell>
        <mxCell id="7A0JXXa-Py3rXMK70Vjk-24" value="" style="endArrow=classic;html=1;rounded=0;entryX=0.5;entryY=0;entryDx=0;entryDy=0;strokeWidth=3;strokeColor=#CC0000;" edge="1" parent="1" source="7A0JXXa-Py3rXMK70Vjk-7" target="7A0JXXa-Py3rXMK70Vjk-6">
          <mxGeometry width="50" height="50" relative="1" as="geometry">
            <mxPoint x="480" y="610" as="sourcePoint" />
            <mxPoint x="480" y="590" as="targetPoint" />
          </mxGeometry>
        </mxCell>
        <mxCell id="7A0JXXa-Py3rXMK70Vjk-25" value="" style="endArrow=classic;html=1;rounded=0;entryX=0.742;entryY=-0.015;entryDx=0;entryDy=0;entryPerimeter=0;strokeWidth=3;strokeColor=#CC0000;" edge="1" parent="1" source="7A0JXXa-Py3rXMK70Vjk-6" target="7A0JXXa-Py3rXMK70Vjk-13">
          <mxGeometry width="50" height="50" relative="1" as="geometry">
            <mxPoint x="480" y="730" as="sourcePoint" />
            <mxPoint x="480" y="750.7106781186548" as="targetPoint" />
          </mxGeometry>
        </mxCell>
        <mxCell id="7A0JXXa-Py3rXMK70Vjk-26" value="&lt;font style=&quot;font-size: 20px;&quot;&gt;Save signals to measurement file&lt;/font&gt;" style="rounded=1;whiteSpace=wrap;html=1;" vertex="1" parent="1">
          <mxGeometry x="680" y="640" width="200" height="80" as="geometry" />
        </mxCell>
        <mxCell id="7A0JXXa-Py3rXMK70Vjk-28" value="" style="endArrow=classic;html=1;rounded=0;strokeColor=#0000FF;strokeWidth=3;" edge="1" parent="1">
          <mxGeometry width="50" height="50" relative="1" as="geometry">
            <mxPoint x="160" y="600" as="sourcePoint" />
            <mxPoint x="720" y="640" as="targetPoint" />
            <Array as="points">
              <mxPoint x="720" y="600" />
            </Array>
          </mxGeometry>
        </mxCell>
        <mxCell id="7A0JXXa-Py3rXMK70Vjk-29" value="" style="endArrow=classic;html=1;rounded=0;strokeColor=#CC0000;strokeWidth=3;" edge="1" parent="1">
          <mxGeometry width="50" height="50" relative="1" as="geometry">
            <mxPoint x="480" y="560" as="sourcePoint" />
            <mxPoint x="760" y="640" as="targetPoint" />
            <Array as="points">
              <mxPoint x="760" y="560" />
            </Array>
          </mxGeometry>
        </mxCell>
        <mxCell id="7A0JXXa-Py3rXMK70Vjk-30" value="" style="endArrow=classic;html=1;rounded=0;strokeColor=#009900;strokeWidth=3;" edge="1" parent="1">
          <mxGeometry width="50" height="50" relative="1" as="geometry">
            <mxPoint x="480" y="240" as="sourcePoint" />
            <mxPoint x="800" y="640" as="targetPoint" />
            <Array as="points">
              <mxPoint x="800" y="240" />
            </Array>
          </mxGeometry>
        </mxCell>
        <mxCell id="7A0JXXa-Py3rXMK70Vjk-31" value="" style="endArrow=classic;html=1;rounded=0;exitX=0.8;exitY=0.993;exitDx=0;exitDy=0;strokeWidth=3;strokeColor=#009999;exitPerimeter=0;" edge="1" parent="1" source="7A0JXXa-Py3rXMK70Vjk-9">
          <mxGeometry width="50" height="50" relative="1" as="geometry">
            <mxPoint x="1370" y="170" as="sourcePoint" />
            <mxPoint x="840" y="640" as="targetPoint" />
            <Array as="points">
              <mxPoint x="840" y="220" />
            </Array>
          </mxGeometry>
        </mxCell>
        <mxCell id="7A0JXXa-Py3rXMK70Vjk-32" value="" style="endArrow=classic;html=1;rounded=0;strokeWidth=3;strokeColor=#0000FF;" edge="1" parent="1">
          <mxGeometry width="50" height="50" relative="1" as="geometry">
            <mxPoint x="720" y="720" as="sourcePoint" />
            <mxPoint x="720" y="760" as="targetPoint" />
          </mxGeometry>
        </mxCell>
        <mxCell id="7A0JXXa-Py3rXMK70Vjk-33" value="" style="endArrow=classic;html=1;rounded=0;entryX=0.4;entryY=0.003;entryDx=0;entryDy=0;entryPerimeter=0;strokeColor=#CC0000;strokeWidth=3;" edge="1" parent="1" target="7A0JXXa-Py3rXMK70Vjk-14">
          <mxGeometry width="50" height="50" relative="1" as="geometry">
            <mxPoint x="760" y="720" as="sourcePoint" />
            <mxPoint x="810" y="670" as="targetPoint" />
          </mxGeometry>
        </mxCell>
        <mxCell id="7A0JXXa-Py3rXMK70Vjk-34" value="" style="endArrow=classic;html=1;rounded=0;strokeColor=#009900;strokeWidth=3;" edge="1" parent="1">
          <mxGeometry width="50" height="50" relative="1" as="geometry">
            <mxPoint x="800" y="720" as="sourcePoint" />
            <mxPoint x="800" y="760" as="targetPoint" />
          </mxGeometry>
        </mxCell>
        <mxCell id="7A0JXXa-Py3rXMK70Vjk-35" value="" style="endArrow=classic;html=1;rounded=0;strokeColor=#009999;strokeWidth=3;" edge="1" parent="1">
          <mxGeometry width="50" height="50" relative="1" as="geometry">
            <mxPoint x="840" y="720" as="sourcePoint" />
            <mxPoint x="840" y="760" as="targetPoint" />
          </mxGeometry>
        </mxCell>
        <mxCell id="7A0JXXa-Py3rXMK70Vjk-36" value="&lt;div style=&quot;font-size: 15px;&quot;&gt;&lt;font size=&quot;1&quot;&gt;&lt;i&gt;&lt;font style=&quot;font-size: 14px;&quot;&gt;\(f_s=3000\) Hz&lt;/font&gt;&lt;/i&gt;&lt;/font&gt;&lt;/div&gt;" style="rounded=1;whiteSpace=wrap;html=1;fillColor=default;strokeColor=none;opacity=20;" vertex="1" parent="1">
          <mxGeometry x="560" y="290" width="100" height="20" as="geometry" />
        </mxCell>
        <mxCell id="7A0JXXa-Py3rXMK70Vjk-37" value="&lt;div style=&quot;font-size: 15px;&quot;&gt;&lt;font size=&quot;1&quot;&gt;&lt;i&gt;&lt;font style=&quot;font-size: 14px;&quot;&gt;\(f_s=48000\) Hz&lt;/font&gt;&lt;/i&gt;&lt;/font&gt;&lt;/div&gt;" style="rounded=1;whiteSpace=wrap;html=1;fillColor=default;strokeColor=none;opacity=20;" vertex="1" parent="1">
          <mxGeometry x="790" y="100" width="110" height="20" as="geometry" />
        </mxCell>
      </root>
    </mxGraphModel>
  </diagram>
</mxfile>
